<?xml version="1.0" encoding="utf-8"?>
<!-- Generator: Adobe Illustrator 25.2.0, SVG Export Plug-In . SVG Version: 6.00 Build 0)  -->
<svg version="1.1" xmlns="http://www.w3.org/2000/svg" xmlns:xlink="http://www.w3.org/1999/xlink" x="0px" y="0px"
	 viewBox="0 0 500 86.5" style="enable-background:new 0 0 500 86.5;" xml:space="preserve">
<style type="text/css">
	.st0{fill-rule:evenodd;clip-rule:evenodd;fill:#6FA7A7;}
	.st1{fill-rule:evenodd;clip-rule:evenodd;fill:#0076AE;}
	.st2{fill-rule:evenodd;clip-rule:evenodd;fill:#003684;}
	.st3{fill-rule:evenodd;clip-rule:evenodd;fill:#66ABA0;}
	.st4{fill:#043484;}
	.st5{fill:#4BA9AC;}
	.st6{fill:#0076B3;}
</style>
<g id="Capa_1_xA0_Imagen_1_">
</g>
<g id="_x31__1_">
	<g id="Capa_0_xA0_Imagen_1_">
	</g>
	<g id="Algo">
	</g>
	<g id="Labs.ai">
		<g>
			<path class="st0" d="M77.9,27.3c1.5-1.4,3.8-1.4,5.2,0.1c1.4,1.5,1.4,3.8-0.1,5.2c-1.5,1.4-3.8,1.4-5.2-0.1
				C76.4,31.1,76.5,28.7,77.9,27.3 M69.2,81.7c1.4,1.5,3.7,1.5,5.2,0.1c1.5-1.4,1.5-3.7,0.1-5.2c-1.4-1.5-3.7-1.5-5.2-0.1
				C67.8,77.9,67.8,80.3,69.2,81.7z M35,71.3c2.6,0.8,5.4,1.3,8.3,1.3c5.7,0.1,11-1.4,15.6-4.2l6.6,6.9c-1.7,2.8-1.4,6.5,1,8.9
				c2.8,2.9,7.5,3,10.4,0.2c2.9-2.8,3-7.5,0.2-10.4c-2.4-2.5-6.1-2.9-8.9-1.3L62,66.4c6.5-5.1,10.9-13,11.2-21.9L56.5,60.6L54,58.1
				l22.6-21.9c2.8,1.7,6.3,1.6,8.9-1c2.7-2.6,3-7.5,0.2-10.4c-2.8-2.9-7.7-2.8-10.4-0.2c-2.7,2.6-2.9,6.1-1.3,8.9
				C61.1,46.2,48.1,58.7,35,71.3z"/>
			<path class="st1" d="M77.3,16.1c1.5-1.4,1.5-3.7,0.1-5.2c-1.4-1.5-3.7-1.5-5.2-0.1c-1.5,1.4-1.5,3.7-0.1,5.2
				C73.5,17.5,75.8,17.5,77.3,16.1 M66.2,24.2l4.7-4.5c2.8,1.7,6.3,1.6,8.9-1c2.7-2.6,3-7.5,0.2-10.4c-2.8-2.9-7.7-2.8-10.4-0.2
				c-2.7,2.6-2.9,6.1-1.3,8.9l-4.7,4.5c-2.1-2-4.6-3.6-7.2-4.9L44.2,28.6c8.1,0.2,14.5,6.8,14.4,14.9l12.3-11.9
				C69.7,28.9,68.1,26.4,66.2,24.2z"/>
			<path class="st2" d="M15.6,75.7c1.5-1.4,1.5-3.7,0.1-5.2c-1.4-1.5-3.7-1.5-5.2-0.1C9,71.8,9,74.2,10.4,75.6
				C11.8,77.1,14.1,77.1,15.6,75.7 M18.1,78.4c2.7-2.6,2.9-6.1,1.3-8.9L24,65c2.1,2,4.6,3.6,7.2,4.9L43.6,58
				c-8.1-0.2-14.5-6.8-14.4-14.9L16.9,54.9c1.2,2.7,2.7,5.2,4.6,7.4l-4.6,4.5c-2.8-1.7-6.3-1.6-8.9,1c-2.7,2.6-3,7.5-0.2,10.4
				C10.5,81.1,15.4,81,18.1,78.4z"/>
			<path class="st3" d="M9.8,59.2c-1.5,1.4-3.8,1.4-5.2-0.1c-1.4-1.5-1.4-3.8,0.1-5.2c1.5-1.4,3.8-1.4,5.2,0.1
				C11.3,55.5,11.3,57.8,9.8,59.2 M18.6,4.8c-1.4-1.5-3.7-1.5-5.2-0.1c-1.5,1.4-1.5,3.7-0.1,5.2c1.4,1.5,3.7,1.5,5.2,0.1
				C19.9,8.6,20,6.3,18.6,4.8z M52.7,15.2c-2.6-0.8-5.4-1.3-8.3-1.3c-5.7-0.1-11,1.4-15.6,4.2l-6.6-6.9c1.7-2.8,1.4-6.5-1-8.9
				c-2.8-2.9-7.5-3-10.4-0.2c-2.9,2.8-3,7.5-0.2,10.4c2.4,2.5,6.1,2.9,8.9,1.3l6.2,6.4c-6.5,5.1-10.9,13-11.2,21.9l16.8-16.2
				l2.5,2.6L11.1,50.3c-2.8-1.7-6.3-1.6-8.9,1c-2.7,2.6-3,7.5-0.2,10.4c2.8,2.9,7.7,2.8,10.4,0.2c2.7-2.6,2.9-6.1,1.3-8.9
				C26.7,40.4,39.7,27.8,52.7,15.2z"/>
			<g>
				<path class="st4" d="M133.6,70.7L129,59.5h-21l-4.5,11.1H92.3l21.3-50h10.1l21.3,50H133.6z M118.5,33.7l-6.6,16.1h13.2
					L118.5,33.7z"/>
				<path class="st4" d="M152,70.7V18.8h10.8v51.8H152z"/>
				<path class="st4" d="M209.9,71.3c-0.9,2.5-2.2,4.6-4,6.2c-1.8,1.6-4,2.8-6.6,3.5c-2.6,0.8-5.7,1.1-9.3,1.1c-3.1,0-6.1-0.3-8.9-1
					c-2.8-0.7-5.5-1.7-7.9-2.9l3.7-8.1c2,1.1,4,1.9,6,2.6c2,0.6,4.3,0.9,6.8,0.9c3.7,0,6.4-0.9,8.2-2.6c1.8-1.7,2.7-4.3,2.7-7.7
					v-1.8c-1.6,1.9-3.4,3.5-5.3,4.5c-1.9,1.1-4.3,1.6-7.2,1.6c-2.2,0-4.4-0.4-6.4-1.2c-2-0.8-3.8-1.9-5.4-3.4
					c-1.6-1.5-2.8-3.4-3.7-5.6c-0.9-2.2-1.4-4.7-1.4-7.6v-0.1c0-2.8,0.5-5.4,1.4-7.6c0.9-2.2,2.2-4.1,3.8-5.6
					c1.6-1.5,3.4-2.7,5.4-3.4c2-0.8,4.1-1.2,6.3-1.2c2.9,0,5.3,0.5,7.2,1.6c1.9,1.1,3.6,2.4,5,4v-5h10.8v29.5
					C211.2,65.7,210.7,68.7,209.9,71.3z M200.5,49.6c0-1.3-0.2-2.5-0.7-3.5c-0.5-1.1-1.1-2-2-2.8c-0.8-0.8-1.8-1.4-2.9-1.8
					c-1.1-0.4-2.4-0.6-3.7-0.6c-1.3,0-2.5,0.2-3.7,0.6c-1.1,0.4-2.1,1-2.9,1.8c-0.8,0.8-1.5,1.7-2,2.8c-0.5,1.1-0.7,2.3-0.7,3.5v0.1
					c0,2.7,0.9,4.8,2.6,6.4c1.7,1.6,3.9,2.4,6.6,2.4c1.3,0,2.6-0.2,3.7-0.6c1.1-0.4,2.1-1,2.9-1.8c0.8-0.8,1.5-1.7,2-2.8
					c0.5-1.1,0.7-2.3,0.7-3.5V49.6z"/>
				<path class="st4" d="M258.6,59.4c-1,2.4-2.5,4.5-4.3,6.3c-1.8,1.8-4,3.2-6.5,4.3c-2.5,1-5.3,1.6-8.2,1.6c-2.9,0-5.7-0.5-8.2-1.5
					c-2.5-1-4.7-2.4-6.5-4.2c-1.8-1.8-3.3-3.9-4.3-6.2c-1-2.4-1.6-5-1.6-7.7v-0.1c0-2.7,0.5-5.3,1.6-7.7c1-2.4,2.5-4.5,4.3-6.3
					c1.8-1.8,4-3.2,6.5-4.3c2.5-1,5.3-1.6,8.2-1.6c2.9,0,5.7,0.5,8.2,1.5c2.5,1,4.7,2.4,6.5,4.2c1.8,1.8,3.3,3.9,4.3,6.2
					c1,2.4,1.6,5,1.6,7.7v0.1C260.1,54.4,259.6,57,258.6,59.4z M249.5,51.7c0-1.4-0.2-2.8-0.7-4c-0.5-1.3-1.2-2.4-2.1-3.3
					c-0.9-1-2-1.7-3.2-2.3c-1.2-0.6-2.6-0.9-4-0.9c-1.6,0-2.9,0.3-4.2,0.8c-1.2,0.5-2.2,1.3-3.1,2.2c-0.9,0.9-1.5,2-2,3.3
					c-0.5,1.3-0.7,2.6-0.7,4v0.1c0,1.4,0.2,2.8,0.7,4c0.5,1.3,1.2,2.4,2.1,3.3c0.9,1,2,1.7,3.2,2.3s2.6,0.9,4.1,0.9
					c1.6,0,2.9-0.3,4.2-0.8c1.2-0.5,2.2-1.3,3.1-2.2c0.9-0.9,1.5-2,2-3.3c0.4-1.3,0.7-2.6,0.7-4V51.7z"/>
			</g>
			<g>
				<path class="st5" d="M272.6,71.5V21.8h3.7v46.3h29.2v3.3H272.6z"/>
				<path class="st5" d="M340.6,71.5v-6c-0.6,0.9-1.4,1.7-2.2,2.5c-0.9,0.8-1.9,1.6-3,2.2c-1.1,0.6-2.4,1.2-3.9,1.6
					c-1.4,0.4-3,0.6-4.7,0.6c-1.7,0-3.4-0.2-5-0.7c-1.7-0.5-3.1-1.2-4.5-2.1c-1.3-0.9-2.4-2.1-3.2-3.5c-0.8-1.4-1.2-3.1-1.2-5v-0.1
					c0-1.9,0.4-3.6,1.2-5c0.8-1.5,1.9-2.7,3.2-3.7c1.4-1,3-1.8,5-2.3c1.9-0.5,4.1-0.8,6.5-0.8c2.6,0,4.8,0.1,6.6,0.4
					c1.8,0.3,3.6,0.7,5.4,1.1V49c0-3.7-1.1-6.4-3.2-8.3c-2.1-1.8-5-2.8-8.8-2.8c-2.2,0-4.3,0.3-6.1,0.8c-1.8,0.5-3.6,1.2-5.3,2.1
					l-1.3-3.1c2-1,4-1.7,6-2.3c2-0.6,4.3-0.9,6.8-0.9c4.7,0,8.4,1.2,11.1,3.5c2.7,2.4,4,5.9,4,10.6v22.6H340.6z M340.7,53.8
					c-1.5-0.4-3.3-0.7-5.3-1.1c-2-0.4-4.4-0.5-7-0.5c-3.8,0-6.8,0.8-8.8,2.3c-2.1,1.5-3.1,3.6-3.1,6.1v0.1c0,1.3,0.3,2.5,0.9,3.5
					c0.6,1,1.3,1.9,2.3,2.6c1,0.7,2.1,1.2,3.4,1.6c1.3,0.4,2.6,0.6,4,0.6c1.8,0,3.6-0.3,5.3-0.8c1.7-0.5,3.1-1.3,4.4-2.3
					c1.3-1,2.2-2.1,3-3.5c0.7-1.4,1.1-2.9,1.1-4.5V53.8z"/>
				<path class="st5" d="M390.9,61.3c-1,2.3-2.4,4.3-4,6c-1.7,1.6-3.5,2.9-5.6,3.8c-2.1,0.9-4.2,1.3-6.4,1.3c-1.8,0-3.5-0.2-5-0.7
					c-1.5-0.5-2.9-1.1-4.1-1.9c-1.2-0.8-2.3-1.7-3.3-2.8c-1-1-1.8-2.1-2.6-3.3v7.8h-3.5V19.7h3.5v23.7c0.8-1.2,1.6-2.3,2.6-3.4
					c1-1.1,2.1-2,3.3-2.8c1.2-0.8,2.6-1.5,4-2c1.5-0.5,3.1-0.7,4.9-0.7c2.2,0,4.3,0.4,6.4,1.3c2.1,0.9,4,2.1,5.6,3.7
					c1.7,1.6,3,3.6,4,5.9c1,2.3,1.5,5,1.5,7.9v0.1C392.4,56.3,391.9,58.9,390.9,61.3z M388.8,53.4c0-2.4-0.4-4.5-1.1-6.5
					c-0.8-1.9-1.8-3.6-3.1-4.9c-1.3-1.3-2.8-2.4-4.6-3.1c-1.7-0.7-3.5-1.1-5.4-1.1c-1.9,0-3.7,0.4-5.5,1.1c-1.8,0.8-3.4,1.8-4.7,3.2
					c-1.4,1.4-2.5,3-3.3,4.9c-0.8,1.9-1.2,4-1.2,6.3v0.1c0,2.3,0.4,4.4,1.2,6.4c0.8,1.9,1.9,3.5,3.3,4.9c1.4,1.3,3,2.4,4.7,3.2
					c1.8,0.8,3.6,1.1,5.5,1.1c2,0,3.9-0.4,5.6-1.1c1.7-0.7,3.2-1.7,4.5-3.1c1.3-1.3,2.3-2.9,3-4.9c0.7-1.9,1.1-4.1,1.1-6.5V53.4z"/>
				<path class="st5" d="M426.5,66c-0.6,1.3-1.5,2.4-2.7,3.3c-1.1,0.9-2.5,1.6-4,2.1c-1.5,0.5-3.1,0.7-4.9,0.7
					c-2.6,0-5.3-0.5-7.9-1.5c-2.6-1-4.9-2.3-6.9-3.8l2.1-2.8c2,1.5,4.1,2.7,6.2,3.5c2.2,0.8,4.4,1.2,6.7,1.2c2.5,0,4.5-0.6,6.2-1.8
					c1.7-1.2,2.5-2.9,2.5-5v-0.1c0-1-0.3-1.9-0.8-2.7c-0.5-0.8-1.2-1.4-2.1-2c-0.9-0.6-1.9-1-3.1-1.4c-1.1-0.4-2.3-0.8-3.6-1.1
					c-1.5-0.4-2.9-0.9-4.4-1.3c-1.5-0.5-2.8-1.1-4-1.8c-1.2-0.7-2.1-1.6-2.9-2.7c-0.7-1.1-1.1-2.4-1.1-4v-0.1c0-1.5,0.3-2.8,0.9-4
					c0.6-1.2,1.4-2.3,2.4-3.2c1-0.9,2.3-1.6,3.8-2.1c1.5-0.5,3.1-0.7,4.8-0.7c2.2,0,4.4,0.4,6.7,1.1c2.3,0.7,4.3,1.7,6.1,3l-1.8,2.9
					c-1.7-1.1-3.4-2-5.4-2.6c-1.9-0.7-3.8-1-5.8-1c-2.5,0-4.5,0.6-6,1.8c-1.5,1.2-2.2,2.7-2.2,4.5v0.1c0,1,0.3,1.9,0.9,2.6
					c0.6,0.7,1.3,1.4,2.2,1.9c0.9,0.5,2,1,3.2,1.4c1.2,0.4,2.5,0.8,3.8,1.2c1.5,0.4,2.9,0.9,4.3,1.4c1.4,0.5,2.7,1.1,3.8,1.9
					c1.1,0.8,2,1.7,2.7,2.8c0.7,1.1,1,2.4,1,4v0.1C427.5,63.2,427.2,64.7,426.5,66z"/>
				<path class="st6" d="M437.8,71.5v-6h4.7v6H437.8z"/>
				<path class="st6" d="M479.7,71.5v-6c-0.6,0.9-1.4,1.7-2.2,2.5c-0.9,0.8-1.9,1.6-3,2.2c-1.1,0.6-2.4,1.2-3.9,1.6
					c-1.4,0.4-3,0.6-4.7,0.6s-3.4-0.2-5-0.7c-1.7-0.5-3.1-1.2-4.5-2.1c-1.3-0.9-2.4-2.1-3.2-3.5c-0.8-1.4-1.2-3.1-1.2-5v-0.1
					c0-1.9,0.4-3.6,1.2-5c0.8-1.5,1.9-2.7,3.2-3.7c1.4-1,3-1.8,5-2.3c1.9-0.5,4.1-0.8,6.5-0.8c2.6,0,4.8,0.1,6.6,0.4
					c1.8,0.3,3.6,0.7,5.4,1.1V49c0-3.7-1.1-6.4-3.2-8.3c-2.1-1.8-5-2.8-8.8-2.8c-2.2,0-4.3,0.3-6.1,0.8c-1.8,0.5-3.6,1.2-5.3,2.1
					l-1.3-3.1c2-1,4-1.7,6-2.3c2-0.6,4.3-0.9,6.8-0.9c4.7,0,8.4,1.2,11.1,3.5c2.7,2.4,4,5.9,4,10.6v22.6H479.7z M479.8,53.8
					c-1.5-0.4-3.3-0.7-5.3-1.1c-2-0.4-4.4-0.5-7-0.5c-3.8,0-6.8,0.8-8.8,2.3c-2.1,1.5-3.1,3.6-3.1,6.1v0.1c0,1.3,0.3,2.5,0.9,3.5
					c0.6,1,1.3,1.9,2.3,2.6c1,0.7,2.1,1.2,3.4,1.6c1.3,0.4,2.6,0.6,4,0.6c1.8,0,3.6-0.3,5.3-0.8c1.7-0.5,3.1-1.3,4.4-2.3
					c1.3-1,2.2-2.1,3-3.5c0.7-1.4,1.1-2.9,1.1-4.5V53.8z"/>
				<path class="st6" d="M495.7,25.8v-4.8h4.3v4.8H495.7z M496.1,71.5V35.3h3.5v36.2H496.1z"/>
			</g>
		</g>
	</g>
</g>
</svg>
